<?xml version="1.0" encoding="UTF-8" standalone="no"?>
<!DOCTYPE svg PUBLIC "-//W3C//DTD SVG 1.1//EN"
 "http://www.w3.org/Graphics/SVG/1.1/DTD/svg11.dtd">
<!-- Generated by graphviz version 12.2.1 (20241206.2353)
 -->
<!-- Pages: 1 -->
<svg width="829pt" height="155pt"
 viewBox="0.00 0.00 828.50 155.00" xmlns="http://www.w3.org/2000/svg" xmlns:xlink="http://www.w3.org/1999/xlink">
<g id="graph0" class="graph" transform="scale(1 1) rotate(0) translate(4 151)">
<polygon fill="white" stroke="none" points="-4,4 -4,-151 824.5,-151 824.5,4 -4,4"/>
<!-- 4353739376 -->
<g id="node1" class="node">
<title>4353739376</title>
<polygon fill="none" stroke="black" points="3.38,-55.5 3.38,-91.5 186.38,-91.5 186.38,-55.5 3.38,-55.5"/>
<text text-anchor="middle" x="43.25" y="-68.7" font-family="Times,serif" font-size="14.00">data 2.0000</text>
<polyline fill="none" stroke="black" points="83.12,-56 83.12,-91.5"/>
<text text-anchor="middle" x="123.75" y="-68.7" font-family="Times,serif" font-size="14.00">grad 7.0000</text>
<polyline fill="none" stroke="black" points="164.38,-56 164.38,-91.5"/>
<text text-anchor="middle" x="175.38" y="-68.7" font-family="Times,serif" font-size="14.00">a</text>
</g>
<!-- 4378854128* -->
<g id="node5" class="node">
<title>4378854128*</title>
<ellipse fill="none" stroke="black" cx="252.75" cy="-100.5" rx="27" ry="18"/>
<text text-anchor="middle" x="252.75" y="-95.45" font-family="Times,serif" font-size="14.00">*</text>
</g>
<!-- 4353739376&#45;&gt;4378854128* -->
<g id="edge6" class="edge">
<title>4353739376&#45;&gt;4378854128*</title>
<path fill="none" stroke="black" d="M186.55,-89.21C196.49,-90.93 206.16,-92.6 214.86,-94.11"/>
<polygon fill="black" stroke="black" points="214.13,-97.54 224.58,-95.79 215.33,-90.64 214.13,-97.54"/>
</g>
<!-- 4354669504* -->
<g id="node9" class="node">
<title>4354669504*</title>
<ellipse fill="none" stroke="black" cx="252.75" cy="-45.5" rx="27" ry="18"/>
<text text-anchor="middle" x="252.75" y="-40.45" font-family="Times,serif" font-size="14.00">*</text>
</g>
<!-- 4353739376&#45;&gt;4354669504* -->
<g id="edge9" class="edge">
<title>4353739376&#45;&gt;4354669504*</title>
<path fill="none" stroke="black" d="M186.55,-57.21C196.59,-55.41 206.33,-53.66 215.1,-52.08"/>
<polygon fill="black" stroke="black" points="215.67,-55.54 224.9,-50.32 214.44,-48.65 215.67,-55.54"/>
</g>
<!-- 4378854512 -->
<g id="node2" class="node">
<title>4378854512</title>
<polygon fill="none" stroke="black" points="630,-54.5 630,-90.5 820.5,-90.5 820.5,-54.5 630,-54.5"/>
<text text-anchor="middle" x="673.25" y="-67.7" font-family="Times,serif" font-size="14.00">data 14.0000</text>
<polyline fill="none" stroke="black" points="716.5,-55 716.5,-90.5"/>
<text text-anchor="middle" x="757.12" y="-67.7" font-family="Times,serif" font-size="14.00">grad 1.0000</text>
<polyline fill="none" stroke="black" points="797.75,-55 797.75,-90.5"/>
<text text-anchor="middle" x="809.12" y="-67.7" font-family="Times,serif" font-size="14.00">d</text>
</g>
<!-- 4378854512+ -->
<g id="node3" class="node">
<title>4378854512+</title>
<ellipse fill="none" stroke="black" cx="567" cy="-72.5" rx="27" ry="18"/>
<text text-anchor="middle" x="567" y="-67.45" font-family="Times,serif" font-size="14.00">+</text>
</g>
<!-- 4378854512+&#45;&gt;4378854512 -->
<g id="edge1" class="edge">
<title>4378854512+&#45;&gt;4378854512</title>
<path fill="none" stroke="black" d="M594.15,-72.5C601.3,-72.5 609.51,-72.5 618.25,-72.5"/>
<polygon fill="black" stroke="black" points="618.06,-76 628.06,-72.5 618.06,-69 618.06,-76"/>
</g>
<!-- 4378854128 -->
<g id="node4" class="node">
<title>4378854128</title>
<polygon fill="none" stroke="black" points="315.75,-82.5 315.75,-118.5 504,-118.5 504,-82.5 315.75,-82.5"/>
<text text-anchor="middle" x="359" y="-95.7" font-family="Times,serif" font-size="14.00">data 20.0000</text>
<polyline fill="none" stroke="black" points="402.25,-83 402.25,-118.5"/>
<text text-anchor="middle" x="442.88" y="-95.7" font-family="Times,serif" font-size="14.00">grad 1.0000</text>
<polyline fill="none" stroke="black" points="483.5,-83 483.5,-118.5"/>
<text text-anchor="middle" x="493.75" y="-95.7" font-family="Times,serif" font-size="14.00">f</text>
</g>
<!-- 4378854128&#45;&gt;4378854512+ -->
<g id="edge5" class="edge">
<title>4378854128&#45;&gt;4378854512+</title>
<path fill="none" stroke="black" d="M504.24,-83.65C513.11,-82.05 521.68,-80.5 529.48,-79.09"/>
<polygon fill="black" stroke="black" points="529.95,-82.56 539.17,-77.34 528.7,-75.68 529.95,-82.56"/>
</g>
<!-- 4378854128*&#45;&gt;4378854128 -->
<g id="edge2" class="edge">
<title>4378854128*&#45;&gt;4378854128</title>
<path fill="none" stroke="black" d="M280.06,-100.5C287.24,-100.5 295.47,-100.5 304.22,-100.5"/>
<polygon fill="black" stroke="black" points="304.04,-104 314.04,-100.5 304.04,-97 304.04,-104"/>
</g>
<!-- 4351148832 -->
<g id="node6" class="node">
<title>4351148832</title>
<polygon fill="none" stroke="black" points="0.75,-0.5 0.75,-36.5 189,-36.5 189,-0.5 0.75,-0.5"/>
<text text-anchor="middle" x="42.88" y="-13.7" font-family="Times,serif" font-size="14.00">data &#45;3.0000</text>
<polyline fill="none" stroke="black" points="85,-1 85,-36.5"/>
<text text-anchor="middle" x="125.62" y="-13.7" font-family="Times,serif" font-size="14.00">grad 2.0000</text>
<polyline fill="none" stroke="black" points="166.25,-1 166.25,-36.5"/>
<text text-anchor="middle" x="177.62" y="-13.7" font-family="Times,serif" font-size="14.00">b</text>
</g>
<!-- 4351148832&#45;&gt;4354669504* -->
<g id="edge8" class="edge">
<title>4351148832&#45;&gt;4354669504*</title>
<path fill="none" stroke="black" d="M189.25,-34.67C198.2,-36.22 206.88,-37.73 214.77,-39.09"/>
<polygon fill="black" stroke="black" points="214.13,-42.54 224.58,-40.79 215.33,-35.64 214.13,-42.54"/>
</g>
<!-- 4351148880 -->
<g id="node7" class="node">
<title>4351148880</title>
<polygon fill="none" stroke="black" points="0,-110.5 0,-146.5 189.75,-146.5 189.75,-110.5 0,-110.5"/>
<text text-anchor="middle" x="43.25" y="-123.7" font-family="Times,serif" font-size="14.00">data 10.0000</text>
<polyline fill="none" stroke="black" points="86.5,-111 86.5,-146.5"/>
<text text-anchor="middle" x="127.12" y="-123.7" font-family="Times,serif" font-size="14.00">grad 2.0000</text>
<polyline fill="none" stroke="black" points="167.75,-111 167.75,-146.5"/>
<text text-anchor="middle" x="178.75" y="-123.7" font-family="Times,serif" font-size="14.00">c</text>
</g>
<!-- 4351148880&#45;&gt;4378854128* -->
<g id="edge4" class="edge">
<title>4351148880&#45;&gt;4378854128*</title>
<path fill="none" stroke="black" d="M190.14,-111.57C198.91,-109.99 207.4,-108.47 215.12,-107.08"/>
<polygon fill="black" stroke="black" points="215.48,-110.57 224.7,-105.36 214.24,-103.68 215.48,-110.57"/>
</g>
<!-- 4354669504 -->
<g id="node8" class="node">
<title>4354669504</title>
<polygon fill="none" stroke="black" points="316.12,-27.5 316.12,-63.5 503.62,-63.5 503.62,-27.5 316.12,-27.5"/>
<text text-anchor="middle" x="358.25" y="-40.7" font-family="Times,serif" font-size="14.00">data &#45;6.0000</text>
<polyline fill="none" stroke="black" points="400.38,-28 400.38,-63.5"/>
<text text-anchor="middle" x="441" y="-40.7" font-family="Times,serif" font-size="14.00">grad 1.0000</text>
<polyline fill="none" stroke="black" points="481.62,-28 481.62,-63.5"/>
<text text-anchor="middle" x="492.62" y="-40.7" font-family="Times,serif" font-size="14.00">e</text>
</g>
<!-- 4354669504&#45;&gt;4378854512+ -->
<g id="edge7" class="edge">
<title>4354669504&#45;&gt;4378854512+</title>
<path fill="none" stroke="black" d="M503.8,-61.67C512.71,-63.22 521.34,-64.73 529.19,-66.09"/>
<polygon fill="black" stroke="black" points="528.51,-69.53 538.96,-67.79 529.71,-62.63 528.51,-69.53"/>
</g>
<!-- 4354669504*&#45;&gt;4354669504 -->
<g id="edge3" class="edge">
<title>4354669504*&#45;&gt;4354669504</title>
<path fill="none" stroke="black" d="M280.06,-45.5C287.3,-45.5 295.61,-45.5 304.45,-45.5"/>
<polygon fill="black" stroke="black" points="304.37,-49 314.37,-45.5 304.37,-42 304.37,-49"/>
</g>
</g>
</svg>
